<svg width="45" height="42" viewBox="0 0 45 42" fill="none" xmlns="http://www.w3.org/2000/svg">
<path d="M36.2743 7.16022C34.8446 8.053 33.6191 8.35517 32.8988 7.85384C32.1786 7.35251 32.0962 6.14039 32.5441 4.56429C29.6667 4.17971 26.0797 5.92406 23.6108 9.17928C23.1808 9.74585 22.8117 10.3262 22.4928 10.9168C22.1739 10.3262 21.8048 9.74585 21.3748 9.17928C18.9059 5.92406 15.319 4.17971 12.4416 4.56429C12.8895 6.14039 12.8071 7.35251 12.0868 7.85384C11.3666 8.35517 10.1411 8.05643 8.71133 7.16022C7.43925 9.66344 8.06275 13.4715 10.5317 16.7267C10.9494 17.2782 11.4107 17.7982 11.9112 18.2822C11.2268 18.3887 10.5352 18.5466 9.84008 18.7629C5.85183 20.006 3.01383 22.7358 2.505 25.476C4.20708 25.5584 5.386 26.0048 5.66191 26.8151C5.93783 27.6255 5.26058 28.6522 3.93116 29.6755C6.02383 31.6087 9.99416 32.2164 13.9896 30.9734C14.6847 30.7571 15.3405 30.4961 15.9604 30.1974C15.8565 30.8532 15.7992 31.5331 15.7992 32.2336C15.7992 36.258 17.6302 39.6883 20.1959 41C20.8015 39.472 21.6113 38.538 22.5 38.538C23.3887 38.538 24.1985 39.472 24.8041 41C27.3697 39.6918 29.2008 36.2614 29.2008 32.2336C29.2008 31.5331 29.1399 30.8498 29.036 30.194C29.6559 30.4927 30.3117 30.7571 31.0104 30.9734C35.0058 32.2164 38.9762 31.6087 41.0688 29.6755C39.7394 28.6488 39.0622 27.6255 39.3381 26.8151C39.614 26.0048 40.7893 25.5549 42.495 25.476C41.9897 22.7324 39.1482 20.006 35.1527 18.7629C34.4576 18.5466 33.766 18.3887 33.0852 18.2822C33.5858 17.7982 34.047 17.2782 34.4647 16.7267C36.9265 13.4681 37.5464 9.66344 36.2743 7.16022Z" stroke="#FF0000" stroke-width="0.703125" stroke-miterlimit="10" stroke-linecap="round" stroke-linejoin="round"/>
<path d="M44 17.695C42.1689 17.6091 40.9004 17.125 40.6066 16.2528C40.3127 15.3806 41.0402 14.2784 42.4663 13.1762C40.216 11.0953 35.9447 10.4429 31.6482 11.782C30.9029 12.0155 30.1934 12.2971 29.5305 12.6164C29.6416 11.9125 29.7061 11.1811 29.7061 10.4291C29.7061 6.09915 27.7388 2.40785 24.9797 1C24.3275 2.64478 23.4567 3.64744 22.5 3.64744C21.5432 3.64744 20.6725 2.64478 20.0203 1C17.2612 2.40785 15.2939 6.09915 15.2939 10.4291C15.2939 11.1811 15.3548 11.9125 15.4695 12.6164C14.803 12.2971 14.0971 12.0155 13.3518 11.782C9.05533 10.4429 4.784 11.0987 2.53367 13.1762C3.96342 14.2784 4.69083 15.3841 4.39342 16.2528C4.09958 17.125 2.83108 17.6091 1 17.695C1.54467 20.6446 4.59767 23.5805 8.89767 24.9162C9.643 25.1497 10.3883 25.318 11.1229 25.4347C10.5997 25.9429 10.1017 26.4992 9.63942 27.107C6.98417 30.6094 6.31408 34.7059 7.68292 37.398C9.22017 36.4365 10.5388 36.1137 11.3128 36.6528C12.0868 37.1919 12.1764 38.4933 11.6962 40.1931C14.7922 40.6085 18.6479 38.7303 21.3032 35.2278C21.7654 34.6166 22.1632 33.9882 22.5036 33.353C22.844 33.9882 23.2417 34.6166 23.704 35.2278C26.3592 38.7303 30.2149 40.6085 33.3109 40.1931C32.8307 38.4968 32.9203 37.1919 33.6943 36.6528C34.4683 36.1137 35.787 36.4365 37.3242 37.398C38.6931 34.7059 38.023 30.6094 35.3677 27.107C34.9055 26.4992 34.4074 25.9395 33.8842 25.4347C34.6188 25.318 35.3642 25.1497 36.1095 24.9162C40.4023 23.577 43.4553 20.6446 44 17.695Z" fill="white" stroke="#FF0000" stroke-width="1.17188" stroke-miterlimit="10" stroke-linecap="round" stroke-linejoin="round"/>
<path d="M12.798 23.024L12.768 22.976C12.712 22.9 12.69 22.816 12.702 22.724C12.718 22.632 12.764 22.558 12.84 22.502L15.78 20.354C15.784 20.354 15.786 20.352 15.786 20.348C15.786 20.344 15.782 20.342 15.774 20.342H13.338C13.246 20.342 13.166 20.308 13.098 20.24C13.03 20.172 12.996 20.092 12.996 20C12.996 19.908 13.03 19.828 13.098 19.76C13.166 19.692 13.246 19.658 13.338 19.658H16.53C16.622 19.658 16.702 19.692 16.77 19.76C16.838 19.828 16.872 19.908 16.872 20V20.102C16.872 20.33 16.782 20.512 16.602 20.648L15.612 21.386V21.392C15.612 21.396 15.616 21.398 15.624 21.398H15.63C15.726 21.398 15.81 21.446 15.882 21.542C15.954 21.634 16.02 21.798 16.08 22.034C16.136 22.258 16.196 22.398 16.26 22.454C16.328 22.51 16.46 22.538 16.656 22.538C16.764 22.538 16.892 22.528 17.04 22.508C17.136 22.496 17.222 22.516 17.298 22.568C17.374 22.616 17.42 22.684 17.436 22.772L17.442 22.784C17.462 22.876 17.444 22.962 17.388 23.042C17.332 23.122 17.258 23.17 17.166 23.186C16.922 23.222 16.726 23.24 16.578 23.24C16.21 23.24 15.938 23.182 15.762 23.066C15.586 22.954 15.464 22.76 15.396 22.484C15.34 22.268 15.284 22.12 15.228 22.04C15.176 21.96 15.112 21.92 15.036 21.92C14.96 21.92 14.842 21.972 14.682 22.076C14.526 22.18 14.056 22.52 13.272 23.096C13.196 23.152 13.11 23.172 13.014 23.156C12.922 23.144 12.85 23.1 12.798 23.024ZM13.98 18.326C14.624 18.406 15.33 18.456 16.098 18.476C16.19 18.48 16.27 18.516 16.338 18.584C16.406 18.648 16.44 18.726 16.44 18.818V18.842C16.44 18.934 16.406 19.014 16.338 19.082C16.274 19.15 16.196 19.182 16.104 19.178C15.396 19.158 14.658 19.1 13.89 19.004C13.798 18.992 13.722 18.948 13.662 18.872C13.606 18.796 13.584 18.712 13.596 18.62C13.608 18.528 13.652 18.454 13.728 18.398C13.804 18.338 13.888 18.314 13.98 18.326ZM19.176 21.53C19.084 21.51 19.01 21.462 18.954 21.386C18.902 21.306 18.884 21.22 18.9 21.128C18.996 20.576 19.062 20.174 19.098 19.922C19.114 19.826 19.158 19.748 19.23 19.688C19.302 19.624 19.386 19.596 19.482 19.604L19.584 19.616C19.676 19.624 19.75 19.664 19.806 19.736C19.866 19.808 19.89 19.89 19.878 19.982C19.826 20.362 19.788 20.628 19.764 20.78V20.792H19.77L19.776 20.786C20.04 20.606 20.332 20.464 20.652 20.36C20.976 20.252 21.28 20.198 21.564 20.198C22.16 20.198 22.598 20.316 22.878 20.552C23.162 20.784 23.304 21.14 23.304 21.62C23.304 22.152 23.08 22.566 22.632 22.862C22.184 23.154 21.534 23.3 20.682 23.3C20.366 23.3 20.02 23.284 19.644 23.252C19.548 23.244 19.468 23.204 19.404 23.132C19.344 23.06 19.318 22.976 19.326 22.88V22.868C19.33 22.776 19.368 22.7 19.44 22.64C19.516 22.58 19.6 22.554 19.692 22.562C20.152 22.602 20.482 22.622 20.682 22.622C21.234 22.622 21.658 22.534 21.954 22.358C22.254 22.178 22.404 21.932 22.404 21.62C22.404 21.128 22.084 20.882 21.444 20.882C21 20.882 20.468 21.066 19.848 21.434C19.64 21.554 19.432 21.59 19.224 21.542L19.176 21.53ZM20.028 18.482C20.768 18.562 21.494 18.608 22.206 18.62C22.298 18.62 22.376 18.654 22.44 18.722C22.508 18.79 22.542 18.87 22.542 18.962C22.542 19.054 22.508 19.134 22.44 19.202C22.376 19.266 22.298 19.298 22.206 19.298C21.434 19.286 20.68 19.24 19.944 19.16C19.848 19.148 19.77 19.104 19.71 19.028C19.654 18.952 19.632 18.868 19.644 18.776C19.656 18.684 19.7 18.61 19.776 18.554C19.852 18.498 19.936 18.474 20.028 18.482ZM28.716 22.298C28.672 21.206 28.466 20.202 28.098 19.286C28.066 19.202 28.068 19.12 28.104 19.04C28.14 18.956 28.202 18.9 28.29 18.872L28.374 18.848C28.466 18.82 28.556 18.828 28.644 18.872C28.736 18.912 28.802 18.976 28.842 19.064C29.254 20.028 29.478 21.106 29.514 22.298C29.518 22.39 29.486 22.47 29.418 22.538C29.35 22.606 29.27 22.64 29.178 22.64H29.058C28.966 22.64 28.886 22.606 28.818 22.538C28.754 22.47 28.72 22.39 28.716 22.298ZM25.998 23.282C25.658 23.282 25.342 23.05 25.05 22.586C24.762 22.122 24.618 21.56 24.618 20.9C24.618 20.296 24.688 19.704 24.828 19.124C24.852 19.028 24.904 18.954 24.984 18.902C25.068 18.846 25.16 18.824 25.26 18.836L25.362 18.848C25.45 18.856 25.518 18.898 25.566 18.974C25.618 19.05 25.634 19.132 25.614 19.22C25.486 19.788 25.422 20.348 25.422 20.9C25.422 21.344 25.492 21.718 25.632 22.022C25.776 22.326 25.918 22.478 26.058 22.478C26.146 22.478 26.26 22.394 26.4 22.226C26.54 22.054 26.682 21.806 26.826 21.482C26.866 21.394 26.928 21.332 27.012 21.296C27.1 21.256 27.188 21.252 27.276 21.284L27.342 21.308C27.43 21.34 27.494 21.4 27.534 21.488C27.574 21.572 27.576 21.656 27.54 21.74C27.336 22.224 27.092 22.602 26.808 22.874C26.524 23.146 26.254 23.282 25.998 23.282ZM32.964 21.68C32.868 21.68 32.786 21.648 32.718 21.584C32.65 21.516 32.614 21.434 32.61 21.338L32.52 18.962C32.516 18.87 32.546 18.79 32.61 18.722C32.674 18.654 32.752 18.62 32.844 18.62H33.168C33.26 18.62 33.338 18.654 33.402 18.722C33.466 18.79 33.496 18.87 33.492 18.962L33.402 21.338C33.398 21.434 33.362 21.516 33.294 21.584C33.226 21.648 33.144 21.68 33.048 21.68H32.964ZM33.108 22.16C33.2 22.16 33.278 22.194 33.342 22.262C33.41 22.33 33.444 22.41 33.444 22.502V22.658C33.444 22.75 33.41 22.83 33.342 22.898C33.278 22.966 33.2 23 33.108 23H32.904C32.812 23 32.732 22.966 32.664 22.898C32.6 22.83 32.568 22.75 32.568 22.658V22.502C32.568 22.41 32.6 22.33 32.664 22.262C32.732 22.194 32.812 22.16 32.904 22.16H33.108Z" fill="#FF0000"/>
<path d="M36.2743 7.16022C34.8446 8.053 33.6191 8.35517 32.8988 7.85384C32.1786 7.35251 32.0962 6.14039 32.5441 4.56429C29.6667 4.17971 26.0797 5.92406 23.6108 9.17928C23.1808 9.74585 22.8117 10.3262 22.4928 10.9168C22.1739 10.3262 21.8048 9.74585 21.3748 9.17928C18.9059 5.92406 15.319 4.17971 12.4416 4.56429C12.8895 6.14039 12.8071 7.35251 12.0868 7.85384C11.3666 8.35517 10.1411 8.05643 8.71133 7.16022C7.43925 9.66344 8.06275 13.4715 10.5317 16.7267C10.9494 17.2782 11.4107 17.7982 11.9112 18.2822C11.2268 18.3887 10.5352 18.5466 9.84008 18.7629C5.85183 20.006 3.01383 22.7358 2.505 25.476C4.20708 25.5584 5.386 26.0048 5.66191 26.8151C5.93783 27.6255 5.26058 28.6522 3.93116 29.6755C6.02383 31.6087 9.99416 32.2164 13.9896 30.9734C14.6847 30.7571 15.3405 30.4961 15.9604 30.1974C15.8565 30.8532 15.7992 31.5331 15.7992 32.2336C15.7992 36.258 17.6302 39.6883 20.1959 41C20.8015 39.472 21.6113 38.538 22.5 38.538C23.3887 38.538 24.1985 39.472 24.8041 41C27.3697 39.6918 29.2008 36.2614 29.2008 32.2336C29.2008 31.5331 29.1399 30.8498 29.036 30.194C29.6559 30.4927 30.3117 30.7571 31.0104 30.9734C35.0058 32.2164 38.9762 31.6087 41.0688 29.6755C39.7394 28.6488 39.0622 27.6255 39.3381 26.8151C39.614 26.0048 40.7893 25.5549 42.495 25.476C41.9897 22.7324 39.1482 20.006 35.1527 18.7629C34.4576 18.5466 33.766 18.3887 33.0852 18.2822C33.5858 17.7982 34.047 17.2782 34.4647 16.7267C36.9265 13.4681 37.5464 9.66344 36.2743 7.16022Z" stroke="#FF0000" stroke-width="0.703125" stroke-miterlimit="10" stroke-linecap="round" stroke-linejoin="round"/>
<path d="M44 17.695C42.1689 17.6091 40.9004 17.125 40.6066 16.2528C40.3127 15.3806 41.0402 14.2784 42.4663 13.1762C40.216 11.0953 35.9447 10.4429 31.6482 11.782C30.9029 12.0155 30.1934 12.2971 29.5305 12.6164C29.6416 11.9125 29.7061 11.1811 29.7061 10.4291C29.7061 6.09915 27.7388 2.40785 24.9797 1C24.3275 2.64478 23.4567 3.64744 22.5 3.64744C21.5432 3.64744 20.6725 2.64478 20.0203 1C17.2612 2.40785 15.2939 6.09915 15.2939 10.4291C15.2939 11.1811 15.3548 11.9125 15.4695 12.6164C14.803 12.2971 14.0971 12.0155 13.3518 11.782C9.05533 10.4429 4.784 11.0987 2.53367 13.1762C3.96342 14.2784 4.69083 15.3841 4.39342 16.2528C4.09958 17.125 2.83108 17.6091 1 17.695C1.54467 20.6446 4.59767 23.5805 8.89767 24.9162C9.643 25.1497 10.3883 25.318 11.1229 25.4347C10.5997 25.9429 10.1017 26.4992 9.63942 27.107C6.98417 30.6094 6.31408 34.7059 7.68292 37.398C9.22017 36.4365 10.5388 36.1137 11.3128 36.6528C12.0868 37.1919 12.1764 38.4933 11.6962 40.1931C14.7922 40.6085 18.6479 38.7303 21.3032 35.2278C21.7654 34.6166 22.1632 33.9882 22.5036 33.353C22.844 33.9882 23.2417 34.6166 23.704 35.2278C26.3592 38.7303 30.2149 40.6085 33.3109 40.1931C32.8307 38.4968 32.9203 37.1919 33.6943 36.6528C34.4683 36.1137 35.787 36.4365 37.3242 37.398C38.6931 34.7059 38.023 30.6094 35.3677 27.107C34.9055 26.4992 34.4074 25.9395 33.8842 25.4347C34.6188 25.318 35.3642 25.1497 36.1095 24.9162C40.4023 23.577 43.4553 20.6446 44 17.695Z" fill="white" stroke="#FF0000" stroke-width="1.17188" stroke-miterlimit="10" stroke-linecap="round" stroke-linejoin="round"/>
<path d="M12.798 23.024L12.768 22.976C12.712 22.9 12.69 22.816 12.702 22.724C12.718 22.632 12.764 22.558 12.84 22.502L15.78 20.354C15.784 20.354 15.786 20.352 15.786 20.348C15.786 20.344 15.782 20.342 15.774 20.342H13.338C13.246 20.342 13.166 20.308 13.098 20.24C13.03 20.172 12.996 20.092 12.996 20C12.996 19.908 13.03 19.828 13.098 19.76C13.166 19.692 13.246 19.658 13.338 19.658H16.53C16.622 19.658 16.702 19.692 16.77 19.76C16.838 19.828 16.872 19.908 16.872 20V20.102C16.872 20.33 16.782 20.512 16.602 20.648L15.612 21.386V21.392C15.612 21.396 15.616 21.398 15.624 21.398H15.63C15.726 21.398 15.81 21.446 15.882 21.542C15.954 21.634 16.02 21.798 16.08 22.034C16.136 22.258 16.196 22.398 16.26 22.454C16.328 22.51 16.46 22.538 16.656 22.538C16.764 22.538 16.892 22.528 17.04 22.508C17.136 22.496 17.222 22.516 17.298 22.568C17.374 22.616 17.42 22.684 17.436 22.772L17.442 22.784C17.462 22.876 17.444 22.962 17.388 23.042C17.332 23.122 17.258 23.17 17.166 23.186C16.922 23.222 16.726 23.24 16.578 23.24C16.21 23.24 15.938 23.182 15.762 23.066C15.586 22.954 15.464 22.76 15.396 22.484C15.34 22.268 15.284 22.12 15.228 22.04C15.176 21.96 15.112 21.92 15.036 21.92C14.96 21.92 14.842 21.972 14.682 22.076C14.526 22.18 14.056 22.52 13.272 23.096C13.196 23.152 13.11 23.172 13.014 23.156C12.922 23.144 12.85 23.1 12.798 23.024ZM13.98 18.326C14.624 18.406 15.33 18.456 16.098 18.476C16.19 18.48 16.27 18.516 16.338 18.584C16.406 18.648 16.44 18.726 16.44 18.818V18.842C16.44 18.934 16.406 19.014 16.338 19.082C16.274 19.15 16.196 19.182 16.104 19.178C15.396 19.158 14.658 19.1 13.89 19.004C13.798 18.992 13.722 18.948 13.662 18.872C13.606 18.796 13.584 18.712 13.596 18.62C13.608 18.528 13.652 18.454 13.728 18.398C13.804 18.338 13.888 18.314 13.98 18.326ZM19.176 21.53C19.084 21.51 19.01 21.462 18.954 21.386C18.902 21.306 18.884 21.22 18.9 21.128C18.996 20.576 19.062 20.174 19.098 19.922C19.114 19.826 19.158 19.748 19.23 19.688C19.302 19.624 19.386 19.596 19.482 19.604L19.584 19.616C19.676 19.624 19.75 19.664 19.806 19.736C19.866 19.808 19.89 19.89 19.878 19.982C19.826 20.362 19.788 20.628 19.764 20.78V20.792H19.77L19.776 20.786C20.04 20.606 20.332 20.464 20.652 20.36C20.976 20.252 21.28 20.198 21.564 20.198C22.16 20.198 22.598 20.316 22.878 20.552C23.162 20.784 23.304 21.14 23.304 21.62C23.304 22.152 23.08 22.566 22.632 22.862C22.184 23.154 21.534 23.3 20.682 23.3C20.366 23.3 20.02 23.284 19.644 23.252C19.548 23.244 19.468 23.204 19.404 23.132C19.344 23.06 19.318 22.976 19.326 22.88V22.868C19.33 22.776 19.368 22.7 19.44 22.64C19.516 22.58 19.6 22.554 19.692 22.562C20.152 22.602 20.482 22.622 20.682 22.622C21.234 22.622 21.658 22.534 21.954 22.358C22.254 22.178 22.404 21.932 22.404 21.62C22.404 21.128 22.084 20.882 21.444 20.882C21 20.882 20.468 21.066 19.848 21.434C19.64 21.554 19.432 21.59 19.224 21.542L19.176 21.53ZM20.028 18.482C20.768 18.562 21.494 18.608 22.206 18.62C22.298 18.62 22.376 18.654 22.44 18.722C22.508 18.79 22.542 18.87 22.542 18.962C22.542 19.054 22.508 19.134 22.44 19.202C22.376 19.266 22.298 19.298 22.206 19.298C21.434 19.286 20.68 19.24 19.944 19.16C19.848 19.148 19.77 19.104 19.71 19.028C19.654 18.952 19.632 18.868 19.644 18.776C19.656 18.684 19.7 18.61 19.776 18.554C19.852 18.498 19.936 18.474 20.028 18.482ZM28.716 22.298C28.672 21.206 28.466 20.202 28.098 19.286C28.066 19.202 28.068 19.12 28.104 19.04C28.14 18.956 28.202 18.9 28.29 18.872L28.374 18.848C28.466 18.82 28.556 18.828 28.644 18.872C28.736 18.912 28.802 18.976 28.842 19.064C29.254 20.028 29.478 21.106 29.514 22.298C29.518 22.39 29.486 22.47 29.418 22.538C29.35 22.606 29.27 22.64 29.178 22.64H29.058C28.966 22.64 28.886 22.606 28.818 22.538C28.754 22.47 28.72 22.39 28.716 22.298ZM25.998 23.282C25.658 23.282 25.342 23.05 25.05 22.586C24.762 22.122 24.618 21.56 24.618 20.9C24.618 20.296 24.688 19.704 24.828 19.124C24.852 19.028 24.904 18.954 24.984 18.902C25.068 18.846 25.16 18.824 25.26 18.836L25.362 18.848C25.45 18.856 25.518 18.898 25.566 18.974C25.618 19.05 25.634 19.132 25.614 19.22C25.486 19.788 25.422 20.348 25.422 20.9C25.422 21.344 25.492 21.718 25.632 22.022C25.776 22.326 25.918 22.478 26.058 22.478C26.146 22.478 26.26 22.394 26.4 22.226C26.54 22.054 26.682 21.806 26.826 21.482C26.866 21.394 26.928 21.332 27.012 21.296C27.1 21.256 27.188 21.252 27.276 21.284L27.342 21.308C27.43 21.34 27.494 21.4 27.534 21.488C27.574 21.572 27.576 21.656 27.54 21.74C27.336 22.224 27.092 22.602 26.808 22.874C26.524 23.146 26.254 23.282 25.998 23.282ZM32.964 21.68C32.868 21.68 32.786 21.648 32.718 21.584C32.65 21.516 32.614 21.434 32.61 21.338L32.52 18.962C32.516 18.87 32.546 18.79 32.61 18.722C32.674 18.654 32.752 18.62 32.844 18.62H33.168C33.26 18.62 33.338 18.654 33.402 18.722C33.466 18.79 33.496 18.87 33.492 18.962L33.402 21.338C33.398 21.434 33.362 21.516 33.294 21.584C33.226 21.648 33.144 21.68 33.048 21.68H32.964ZM33.108 22.16C33.2 22.16 33.278 22.194 33.342 22.262C33.41 22.33 33.444 22.41 33.444 22.502V22.658C33.444 22.75 33.41 22.83 33.342 22.898C33.278 22.966 33.2 23 33.108 23H32.904C32.812 23 32.732 22.966 32.664 22.898C32.6 22.83 32.568 22.75 32.568 22.658V22.502C32.568 22.41 32.6 22.33 32.664 22.262C32.732 22.194 32.812 22.16 32.904 22.16H33.108Z" fill="#FF0000"/>
</svg>
